<?xml version="1.0" encoding="UTF-8" ?>
<!DOCTYPE svg PUBLIC "-//W3C//DTD SVG 1.1//EN" "http://www.w3.org/Graphics/SVG/1.1/DTD/svg11.dtd">
<svg width="785pt" height="365pt" viewBox="0 0 785 365" version="1.1" xmlns="http://www.w3.org/2000/svg">
<g id="#005b9fff">
<path fill="#005b9f" opacity="1.00" d=" M 19.96 0.00 L 395.39 0.00 C 404.58 1.17 412.37 8.46 414.41 17.45 C 415.77 23.02 414.83 29.02 411.97 33.97 C 401.00 53.08 389.90 72.12 378.95 91.25 C 514.05 91.25 649.15 91.25 784.25 91.25 C 784.24 92.58 784.24 93.91 784.25 95.25 C 648.36 95.26 512.48 95.23 376.60 95.26 C 371.75 103.85 366.56 112.25 361.91 120.95 C 361.04 119.64 360.72 117.37 358.75 117.41 C 353.61 117.04 348.44 117.20 343.29 117.33 C 337.13 117.55 332.05 122.11 329.40 127.40 C 326.88 132.19 326.98 137.75 326.98 143.01 C 327.07 155.38 326.89 167.76 327.08 180.13 C 329.52 176.22 331.75 172.18 334.27 168.32 C 334.23 172.35 334.02 176.42 334.44 180.44 C 335.07 184.90 338.42 189.38 343.08 190.03 C 348.57 190.72 354.15 189.76 359.64 190.48 C 362.80 192.03 362.12 198.98 358.03 198.46 C 352.38 198.48 346.70 198.81 341.08 198.22 C 333.04 196.67 328.20 188.61 327.06 181.02 C 319.96 193.45 312.72 205.81 305.61 218.24 C 465.15 218.26 624.70 218.25 784.24 218.25 C 784.24 219.66 784.24 221.08 784.26 222.49 C 623.88 222.50 463.51 222.51 303.14 222.49 C 279.02 264.28 254.88 306.06 230.77 347.85 C 228.28 352.16 226.02 356.84 222.00 359.96 C 211.87 368.30 194.72 365.47 188.30 353.85 C 126.77 247.33 65.28 140.79 3.78 34.26 C 0.77 29.15 -0.35 22.88 1.28 17.13 C 3.37 8.36 11.02 1.32 19.96 0.00 M 122.93 119.05 C 122.23 121.98 122.54 125.03 122.49 128.01 C 122.50 149.35 122.52 170.68 122.47 192.02 C 122.52 193.65 122.44 195.34 123.01 196.91 C 124.55 199.97 130.16 198.66 129.66 194.97 C 129.87 171.91 129.69 148.83 129.75 125.75 C 137.80 125.67 145.86 125.90 153.90 125.67 C 158.15 125.64 158.17 117.40 153.90 117.36 C 145.60 117.07 137.29 117.36 128.98 117.22 C 126.93 117.37 124.02 116.73 122.93 119.05 M 186.26 117.34 C 177.14 118.03 170.69 127.24 170.51 135.91 C 170.50 150.61 170.48 165.30 170.52 179.99 C 170.64 188.90 177.52 198.48 187.02 198.50 C 191.72 198.38 196.74 199.25 201.10 197.04 C 207.58 193.58 211.38 186.28 211.46 179.05 C 211.56 165.37 211.47 151.68 211.50 138.00 C 211.63 130.92 208.50 123.54 202.43 119.63 C 197.64 116.51 191.68 117.19 186.26 117.34 M 240.35 117.39 C 230.96 118.40 224.80 128.12 224.81 137.04 C 224.70 151.00 224.70 164.98 224.81 178.95 C 224.82 188.01 231.29 198.09 241.01 198.48 C 246.62 198.37 252.30 198.91 257.87 198.16 C 259.82 196.18 259.89 192.31 257.66 190.51 C 251.78 189.67 245.76 190.90 239.89 189.86 C 234.89 188.45 231.77 183.06 232.00 178.02 C 231.99 164.66 232.01 151.31 231.99 137.96 C 231.80 132.89 234.88 127.26 240.03 125.99 C 245.34 125.35 250.70 126.05 256.03 125.68 C 260.50 125.81 260.50 117.16 256.01 117.32 C 250.79 117.20 245.56 117.12 240.35 117.39 M 276.07 125.69 C 280.63 125.89 285.19 125.69 289.75 125.75 C 289.73 147.82 289.78 169.90 289.72 191.97 C 289.76 193.58 289.66 195.23 290.14 196.80 C 291.47 199.95 297.33 198.77 296.72 195.09 C 296.80 171.98 296.72 148.86 296.75 125.75 C 301.46 125.67 306.18 125.91 310.89 125.67 C 315.52 125.43 314.92 116.50 310.04 117.28 C 298.71 117.24 287.36 117.18 276.03 117.31 C 271.37 117.10 271.40 125.96 276.07 125.69 Z" />
<path fill="#005b9f" opacity="1.00" d=" M 375.51 118.51 C 376.49 117.07 378.44 117.37 379.95 117.24 C 387.97 117.24 395.99 117.26 404.01 117.23 C 405.74 117.29 408.10 117.08 408.93 119.03 C 409.61 121.24 409.71 125.13 406.74 125.60 C 398.51 125.99 390.25 125.62 382.00 125.75 C 382.00 133.75 381.99 141.75 382.00 149.75 C 388.27 149.93 394.58 149.37 400.82 150.02 C 403.23 151.69 403.18 156.20 400.71 157.82 C 394.49 158.28 388.23 157.86 382.00 158.00 C 382.00 168.75 382.00 179.50 382.00 190.25 C 390.02 190.30 398.04 190.16 406.05 190.29 C 410.61 189.86 410.45 198.96 405.96 198.46 C 397.29 198.59 388.62 198.43 379.95 198.53 C 378.48 198.40 376.65 198.78 375.58 197.51 C 374.61 196.24 374.88 194.51 374.74 193.03 C 374.76 169.68 374.76 146.33 374.74 122.99 C 374.85 121.50 374.67 119.83 375.51 118.51 Z" />
<path fill="#005b9f" opacity="1.00" d=" M 422.75 121.91 C 422.49 119.83 423.71 117.24 426.10 117.33 C 431.72 117.12 437.36 117.28 443.00 117.26 C 447.94 117.23 452.83 119.24 456.26 122.83 C 467.13 133.45 466.13 153.70 453.77 162.79 C 446.88 168.01 437.74 165.77 429.75 166.24 C 429.65 176.07 429.93 185.90 429.64 195.72 C 429.50 199.03 424.50 199.58 423.06 196.94 C 422.80 195.63 422.69 194.31 422.73 192.97 C 422.78 169.29 422.74 145.60 422.75 121.91 M 429.75 125.75 C 429.75 136.42 429.75 147.08 429.75 157.75 C 435.73 157.34 441.99 158.72 447.78 156.81 C 459.60 151.33 459.44 131.68 447.45 126.52 C 441.71 124.94 435.63 126.09 429.75 125.75 Z" />
<path fill="#005b9f" opacity="1.00" d=" M 477.46 119.39 C 478.12 116.97 481.03 117.27 482.97 117.22 C 493.64 117.33 504.32 117.14 514.99 117.31 C 519.79 116.92 519.79 126.09 514.99 125.71 C 510.41 125.87 505.83 125.69 501.25 125.75 C 501.22 148.84 501.30 171.94 501.21 195.03 C 501.61 197.51 499.22 199.10 496.96 198.47 C 494.69 198.46 494.28 195.76 494.27 194.02 C 494.21 171.26 494.27 148.50 494.25 125.75 C 489.29 125.60 484.29 126.08 479.36 125.51 C 476.84 124.73 476.98 121.46 477.46 119.39 Z" />
<path fill="#005b9f" opacity="1.00" d=" M 531.78 120.95 C 531.42 119.02 533.04 117.19 535.00 117.32 C 543.67 117.14 552.34 117.31 561.01 117.24 C 562.69 117.27 565.08 117.17 565.71 119.18 C 566.53 121.54 566.20 125.73 562.90 125.67 C 554.85 125.90 546.80 125.67 538.75 125.75 C 538.67 149.08 538.91 172.42 538.64 195.74 C 538.44 199.92 530.98 199.35 531.79 195.04 C 531.72 170.35 531.74 145.65 531.78 120.95 Z" />
<path fill="#005b9f" opacity="1.00" d=" M 579.51 122.03 C 579.26 119.90 580.66 117.22 583.05 117.31 C 588.70 117.15 594.35 117.26 600.00 117.27 C 604.90 117.26 609.74 119.30 613.09 122.89 C 624.12 133.60 622.87 154.28 610.10 163.13 C 603.18 167.93 594.35 165.77 586.50 166.25 C 586.46 175.84 586.57 185.43 586.47 195.01 C 586.74 197.01 585.10 198.91 583.02 198.53 C 580.41 199.08 579.27 196.13 579.49 194.01 C 579.51 170.02 579.49 146.02 579.51 122.03 M 586.50 125.75 C 586.49 136.41 586.51 147.08 586.49 157.74 C 592.30 157.43 598.30 158.52 603.99 157.06 C 616.29 152.15 616.54 132.03 604.51 126.63 C 598.70 124.85 592.48 126.12 586.50 125.75 Z" />
<path fill="#005b9f" opacity="1.00" d=" M 634.14 120.13 C 634.18 116.32 640.67 116.29 640.96 119.97 C 641.69 130.26 640.97 140.62 641.29 150.93 C 641.49 154.35 644.27 157.85 647.92 157.72 C 654.61 157.84 661.30 157.70 668.00 157.75 C 668.10 145.16 667.81 132.56 668.12 119.98 C 668.41 115.85 675.67 116.63 674.96 120.84 C 675.06 141.58 674.97 162.32 675.00 183.06 C 675.06 188.66 672.08 194.33 667.20 197.16 C 664.09 198.93 660.40 198.46 656.98 198.51 C 652.67 198.43 648.36 198.62 644.06 198.46 C 640.10 198.57 639.91 192.29 642.51 190.50 C 648.95 189.76 655.48 190.68 661.94 190.09 C 665.75 189.66 667.97 185.63 667.96 182.08 C 668.11 176.81 667.94 171.52 668.00 166.25 C 661.00 166.17 654.00 166.40 647.01 166.16 C 638.99 165.78 633.76 157.47 634.00 150.00 C 634.08 140.04 633.80 130.07 634.14 120.13 Z" />
<path fill="#005b9f" opacity="1.00" d=" M 689.32 118.24 C 690.90 116.95 693.07 117.34 694.97 117.22 C 705.30 117.32 715.63 117.17 725.96 117.29 C 728.03 117.14 729.92 118.87 729.48 121.02 C 729.51 145.66 729.53 170.31 729.47 194.95 C 730.37 199.40 722.63 199.95 722.59 195.60 C 722.36 172.33 722.57 149.03 722.50 125.75 C 713.58 125.75 704.66 125.75 695.75 125.75 C 695.75 148.17 695.74 170.59 695.76 193.00 C 695.69 194.84 695.78 197.13 694.04 198.29 C 692.53 198.57 690.67 198.85 689.44 197.71 C 688.51 196.33 688.55 194.61 688.49 193.02 C 688.50 169.68 688.52 146.33 688.48 122.98 C 688.52 121.38 688.50 119.68 689.32 118.24 Z" />
<path fill="#005b9f" opacity="1.00" d=" M 743.00 122.94 C 742.97 120.79 743.12 117.34 746.05 117.36 C 755.67 117.06 765.31 117.37 774.95 117.23 C 777.41 117.30 779.96 116.99 782.39 117.62 C 784.46 118.52 784.11 121.19 784.26 123.05 C 784.24 146.36 784.25 169.67 784.26 192.98 C 784.32 195.20 784.00 198.62 781.03 198.53 C 778.34 199.16 776.66 196.52 777.01 194.13 C 776.97 171.34 777.01 148.54 777.00 125.75 C 768.08 125.75 759.16 125.75 750.25 125.75 C 750.20 148.83 750.35 171.92 750.18 195.00 C 750.44 197.26 748.26 199.05 746.10 198.51 C 743.21 198.57 742.96 195.21 743.00 193.09 C 743.00 169.71 743.00 146.32 743.00 122.94 Z" />
<path fill="#005b9f" opacity="1.00" d=" M 184.27 126.38 C 187.39 125.33 190.76 125.78 194.00 125.74 C 199.85 125.56 204.26 131.45 204.23 136.95 C 204.29 150.64 204.22 164.32 204.26 178.00 C 204.47 182.90 201.62 188.19 196.80 189.76 C 193.61 190.52 190.28 190.36 187.04 190.14 C 181.15 189.75 177.40 183.56 177.50 178.09 C 177.49 164.71 177.49 151.33 177.51 137.95 C 177.42 133.28 179.84 128.28 184.27 126.38 Z" />
<path fill="#005b9f" opacity="1.00" d=" M 334.29 137.11 C 334.41 132.10 337.72 126.54 343.04 125.90 C 348.45 125.46 353.89 125.91 359.31 125.79 C 350.44 139.63 342.92 154.32 334.27 168.32 C 334.31 157.91 334.15 147.51 334.29 137.11 Z" />
<path fill="#005b9f" opacity="1.00" d=" M 306.30 236.35 C 309.76 233.20 314.88 234.26 319.11 234.63 C 319.04 235.50 318.88 237.24 318.81 238.11 C 315.01 238.78 309.15 236.53 307.31 241.18 C 306.57 246.41 307.21 251.75 306.98 257.02 C 307.09 259.93 306.28 263.90 309.41 265.55 C 312.19 266.45 315.23 265.72 318.11 266.11 C 319.77 267.01 319.37 270.25 317.19 269.97 C 313.31 270.02 308.42 270.75 305.72 267.25 C 302.19 262.97 303.88 257.02 303.50 251.95 C 303.80 246.74 302.19 240.48 306.30 236.35 Z" />
<path fill="#005b9f" opacity="1.00" d=" M 661.28 234.40 C 664.17 234.13 667.22 233.93 670.04 234.77 C 673.25 236.09 674.24 239.86 674.02 243.02 C 673.80 250.32 674.39 257.67 673.72 264.93 C 672.63 270.40 665.42 271.31 661.31 268.81 C 657.59 266.07 658.63 260.97 658.47 256.98 C 658.65 253.72 657.81 249.90 660.16 247.21 C 662.67 243.82 667.32 245.31 670.90 244.96 C 670.61 242.85 671.08 240.23 669.31 238.66 C 666.66 237.81 663.74 238.54 661.01 238.07 C 659.54 237.30 659.53 234.82 661.28 234.40 M 662.26 250.37 C 661.29 254.48 661.72 258.82 661.90 263.00 C 662.06 267.41 670.45 267.38 670.64 262.97 C 670.95 258.23 670.66 253.48 670.75 248.74 C 667.96 249.10 664.17 247.62 662.26 250.37 Z" />
<path fill="#005b9f" opacity="1.00" d=" M 426.12 238.14 C 426.88 238.13 428.39 238.10 429.15 238.09 C 429.21 240.27 429.24 242.45 429.22 244.64 C 433.56 245.30 437.50 248.56 438.18 253.02 C 438.91 257.87 438.98 263.61 435.29 267.35 C 433.75 269.10 431.37 269.55 429.24 270.18 C 429.23 273.50 429.38 276.82 429.11 280.12 C 428.33 280.19 426.77 280.31 425.99 280.37 C 426.00 276.98 426.00 273.59 425.99 270.20 C 421.67 269.57 417.89 266.41 417.09 262.02 C 416.40 257.24 416.12 251.48 419.79 247.76 C 421.31 245.86 423.76 245.31 426.00 244.70 C 426.00 242.51 426.03 240.32 426.12 238.14 M 421.45 251.44 C 419.62 254.12 420.22 257.58 420.35 260.62 C 420.58 263.69 423.29 265.48 425.94 266.39 C 426.03 260.40 426.05 254.41 425.93 248.43 C 424.33 249.24 422.41 249.80 421.45 251.44 M 429.30 248.42 C 429.21 254.41 429.21 260.40 429.30 266.38 C 431.56 265.53 434.01 264.27 434.69 261.75 C 435.24 258.97 435.21 256.04 434.72 253.26 C 434.03 250.67 431.59 249.35 429.30 248.42 Z" />
<path fill="#005b9f" opacity="1.00" d=" M 325.04 251.85 C 324.88 248.54 327.49 245.01 330.97 245.00 C 333.48 244.93 336.55 244.55 338.37 246.70 C 341.65 249.99 340.29 255.06 340.34 259.20 C 336.26 259.27 332.19 259.23 328.12 259.27 C 328.36 261.51 327.88 264.40 330.06 265.85 C 333.36 266.22 336.71 265.74 340.00 266.25 C 340.80 267.26 340.93 270.14 339.03 269.87 C 334.53 269.95 327.97 271.39 325.72 266.20 C 324.31 261.59 325.19 256.61 325.04 251.85 M 330.15 248.98 C 327.90 250.38 328.39 253.24 328.07 255.47 C 331.19 255.51 334.31 255.51 337.43 255.48 C 337.23 253.76 337.26 251.99 336.71 250.33 C 335.31 248.08 332.34 248.61 330.15 248.98 Z" />
<path fill="#005b9f" opacity="1.00" d=" M 346.65 245.07 C 350.37 245.11 354.17 244.61 357.85 245.33 C 362.04 247.03 362.19 252.10 362.04 255.94 C 361.77 259.94 362.92 264.72 359.96 267.98 C 357.43 270.91 353.13 269.74 349.74 270.04 C 349.74 273.01 349.86 275.98 349.68 278.95 C 350.23 280.74 346.08 281.36 346.59 279.19 C 346.44 267.82 346.39 256.43 346.65 245.07 M 349.75 248.72 C 349.75 254.48 349.75 260.25 349.75 266.02 C 352.57 265.58 356.81 267.31 358.32 264.00 C 358.65 259.73 358.63 255.41 358.36 251.13 C 357.26 247.40 352.60 249.15 349.75 248.72 Z" />
<path fill="#005b9f" opacity="1.00" d=" M 367.93 245.11 C 372.99 244.97 378.05 244.93 383.11 245.02 C 386.84 244.70 389.65 248.54 389.48 252.02 C 389.48 258.08 389.72 264.17 389.21 270.23 C 388.52 270.02 387.12 269.61 386.43 269.41 C 385.80 263.32 386.77 257.16 385.97 251.09 C 385.39 248.48 382.31 248.74 380.26 248.61 C 380.17 255.09 380.36 261.57 380.21 268.04 C 380.71 269.91 377.71 270.88 377.14 269.03 C 376.77 262.28 377.12 255.50 377.00 248.75 C 375.08 248.75 373.16 248.75 371.25 248.75 C 371.12 255.49 371.51 262.24 371.07 268.97 C 370.33 270.85 367.58 269.95 367.85 268.04 C 367.66 260.40 367.65 252.74 367.93 245.11 Z" />
<path fill="#005b9f" opacity="1.00" d=" M 395.64 244.74 C 400.40 244.44 398.34 250.18 398.76 253.05 C 399.34 257.18 397.24 262.39 400.31 265.72 C 402.67 266.20 405.10 265.97 407.50 266.03 C 407.63 258.99 407.18 251.93 407.78 244.91 C 408.51 244.99 409.96 245.14 410.69 245.22 C 410.68 253.33 410.98 261.47 410.57 269.58 C 407.44 270.33 404.15 270.09 400.96 269.85 C 397.67 269.54 395.24 266.20 395.49 262.98 C 395.50 256.90 395.40 250.82 395.64 244.74 Z" />
<path fill="#005b9f" opacity="1.00" d=" M 444.44 246.31 C 444.18 244.29 447.85 244.31 447.56 246.34 C 448.17 252.19 447.33 258.10 447.93 263.96 C 449.31 267.33 453.71 265.57 456.50 266.03 C 456.76 259.03 455.97 251.96 456.89 245.02 C 457.56 245.15 458.90 245.39 459.58 245.51 C 459.97 253.57 459.70 261.67 459.68 269.74 C 456.14 269.98 452.53 270.33 449.03 269.69 C 445.76 268.80 444.11 265.19 444.26 262.02 C 444.32 256.78 443.99 251.52 444.44 246.31 Z" />
<path fill="#005b9f" opacity="1.00" d=" M 465.69 244.71 C 466.98 244.91 468.99 245.16 468.71 246.99 C 468.86 250.23 468.72 253.47 468.77 256.70 C 472.31 252.75 475.32 248.31 479.12 244.58 C 480.34 244.93 480.99 245.73 481.07 246.98 C 479.33 250.15 476.70 252.72 474.40 255.47 C 476.34 260.07 480.03 263.97 481.03 268.90 C 480.50 269.24 479.44 269.93 478.92 270.27 C 476.17 266.63 474.36 262.41 471.97 258.55 C 470.88 259.87 469.81 261.20 468.75 262.54 C 468.72 264.81 468.90 267.11 468.53 269.37 C 467.84 269.61 466.45 270.08 465.76 270.31 C 465.30 261.79 465.42 253.23 465.69 244.71 Z" />
<path fill="#005b9f" opacity="1.00" d=" M 490.59 245.68 C 494.33 244.29 498.49 245.27 502.40 244.99 C 503.20 251.30 502.39 257.66 502.88 263.98 C 504.27 266.02 506.66 267.71 505.14 270.46 C 503.68 269.74 502.28 268.95 500.89 268.14 C 497.68 270.48 492.76 270.95 489.54 268.43 C 486.20 265.58 487.49 260.80 487.23 256.98 C 487.27 253.09 486.45 247.86 490.59 245.68 M 490.69 251.05 C 490.31 255.01 490.41 259.02 490.60 263.00 C 490.68 267.07 497.79 267.28 499.07 263.93 C 499.53 258.88 499.12 253.79 499.25 248.72 C 496.46 249.12 491.84 247.47 490.69 251.05 Z" />
<path fill="#005b9f" opacity="1.00" d=" M 508.82 244.70 C 509.53 244.88 510.97 245.24 511.69 245.42 C 512.49 251.26 511.64 257.20 512.09 263.07 C 512.07 264.31 513.16 265.10 513.75 266.07 C 516.08 266.01 518.42 265.99 520.76 265.98 C 520.81 259.03 520.59 252.07 520.91 245.12 C 521.66 245.11 523.16 245.11 523.91 245.10 C 524.09 251.95 523.96 258.80 524.00 265.65 C 528.26 265.58 527.22 269.99 527.10 272.84 C 526.38 272.88 524.95 272.96 524.24 272.99 C 524.09 272.24 523.78 270.74 523.63 269.99 C 520.13 269.93 516.59 270.30 513.14 269.67 C 509.95 268.72 508.38 265.14 508.51 262.02 C 508.52 256.24 508.27 250.45 508.82 244.70 Z" />
<path fill="#005b9f" opacity="1.00" d=" M 533.04 246.87 C 532.74 245.07 534.71 244.66 536.06 245.04 C 537.12 250.95 536.10 256.99 536.57 262.94 C 536.68 264.07 537.37 265.01 537.81 266.04 C 540.29 266.00 542.77 265.99 545.25 265.99 C 545.31 259.67 545.15 253.34 545.29 247.02 C 544.98 245.12 546.92 244.87 548.31 244.72 C 548.70 251.48 548.40 258.25 548.53 265.01 C 548.43 266.58 548.72 268.26 548.05 269.74 C 545.01 270.16 541.91 270.14 538.86 269.87 C 535.49 269.74 533.11 266.36 533.06 263.18 C 532.92 257.75 532.96 252.30 533.04 246.87 Z" />
<path fill="#005b9f" opacity="1.00" d=" M 557.70 245.63 C 561.29 244.42 565.28 245.03 569.02 245.13 C 569.24 245.34 569.67 245.74 569.88 245.94 C 570.21 253.82 569.85 261.72 570.04 269.61 C 569.05 269.66 568.07 269.72 567.10 269.80 C 566.42 266.32 566.82 262.76 566.76 259.24 C 565.56 259.25 564.37 259.26 563.19 259.27 C 561.08 262.84 559.32 266.64 556.88 270.01 C 555.47 270.07 554.62 269.42 554.31 268.05 C 555.55 265.06 557.37 262.36 559.00 259.58 C 553.64 257.17 552.72 248.87 557.70 245.63 M 559.92 255.36 C 562.18 255.63 564.47 255.50 566.76 255.51 C 566.75 253.25 566.75 250.99 566.75 248.73 C 564.53 248.74 562.30 248.62 560.10 248.88 C 557.14 249.53 556.98 254.60 559.92 255.36 Z" />
<path fill="#005b9f" opacity="1.00" d=" M 594.60 244.98 C 599.51 245.45 606.74 243.06 609.19 248.94 C 610.42 254.51 609.44 260.34 609.78 266.02 C 609.63 267.26 610.18 270.42 608.03 269.88 C 606.25 270.17 606.55 268.04 606.48 266.98 C 606.29 261.69 606.91 256.34 606.21 251.08 C 604.99 247.43 600.36 249.12 597.50 248.72 C 597.41 255.35 597.65 261.98 597.42 268.60 C 597.55 270.28 594.42 270.59 594.38 268.81 C 594.23 260.88 593.95 252.90 594.60 244.98 Z" />
<path fill="#005b9f" opacity="1.00" d=" M 615.86 245.09 C 619.57 245.06 623.32 244.68 627.01 245.27 C 630.86 246.77 631.48 251.33 631.28 254.95 C 630.98 259.12 632.22 263.93 629.58 267.56 C 627.17 270.96 622.53 269.77 618.99 270.03 C 618.99 273.02 619.11 276.01 618.91 278.99 C 619.54 280.92 615.04 281.18 615.81 278.97 C 615.71 267.68 615.67 256.38 615.86 245.09 M 619.00 248.72 C 618.99 254.48 619.00 260.23 619.00 265.99 C 621.39 266.00 623.78 266.00 626.18 266.04 C 629.12 262.02 627.33 256.64 627.71 252.02 C 627.60 247.47 621.99 248.97 619.00 248.72 Z" />
<path fill="#005b9f" opacity="1.00" d=" M 641.41 245.42 C 645.49 243.90 651.01 245.36 652.18 250.01 C 652.80 254.60 652.55 259.28 652.36 263.89 C 651.79 270.35 642.24 272.23 638.70 267.21 C 636.19 263.67 637.16 259.06 636.97 255.01 C 636.75 251.34 637.80 247.13 641.41 245.42 M 642.28 249.26 C 641.01 250.00 640.45 251.53 640.53 252.94 C 640.44 256.29 640.34 259.66 640.63 263.01 C 641.03 267.35 648.76 267.19 649.11 262.85 C 649.40 259.29 649.38 255.69 649.12 252.14 C 648.85 248.90 644.79 247.84 642.28 249.26 Z" />
<path fill="#005b9f" opacity="1.00" d=" M 680.18 244.85 C 680.87 244.97 682.25 245.21 682.93 245.33 C 683.92 251.60 682.54 258.06 683.62 264.31 C 685.29 267.23 689.26 265.59 692.00 266.02 C 692.14 259.33 691.70 252.62 692.20 245.96 C 692.38 244.50 695.67 244.33 695.27 246.14 C 695.84 253.73 695.30 261.38 695.52 269.00 C 695.51 272.59 695.91 277.12 692.54 279.43 C 689.26 281.33 685.24 280.28 681.65 280.36 C 681.63 279.48 681.60 277.71 681.58 276.83 C 684.49 276.68 687.48 277.05 690.35 276.38 C 692.64 275.11 691.80 272.17 692.10 270.03 C 689.73 270.00 687.35 270.12 685.01 269.78 C 681.93 269.25 679.84 266.08 680.02 263.05 C 679.99 256.98 679.87 250.91 680.18 244.85 Z" />
<path fill="#005b9f" opacity="1.00" d=" M 701.25 245.38 C 701.97 245.23 703.40 244.94 704.11 244.79 C 704.31 248.84 704.26 252.89 704.22 256.94 C 707.38 253.17 710.36 249.25 713.65 245.60 C 714.88 243.80 716.54 245.24 716.70 246.95 C 714.93 250.13 712.29 252.69 709.99 255.48 C 712.09 259.74 714.83 263.68 716.68 268.06 C 716.41 269.46 715.60 270.10 714.24 269.98 C 711.68 266.38 709.85 262.32 707.62 258.52 C 706.51 259.83 705.40 261.15 704.29 262.46 C 704.27 264.71 704.33 266.98 704.14 269.23 C 703.23 270.13 702.02 269.68 700.95 269.53 C 701.23 261.48 700.62 253.40 701.25 245.38 Z" />
<path fill="#005b9f" opacity="1.00" d=" M 722.92 245.09 C 723.66 245.11 725.15 245.14 725.89 245.16 C 726.30 251.34 725.54 257.60 726.30 263.75 C 727.47 267.42 732.15 265.59 735.00 266.01 C 735.04 259.06 734.90 252.12 735.09 245.17 C 735.85 245.15 737.38 245.09 738.14 245.06 C 738.34 251.90 738.25 258.75 738.20 265.60 C 742.52 265.66 741.06 270.33 741.19 273.19 C 739.00 273.37 737.81 272.07 737.63 270.00 C 734.37 269.96 731.09 270.21 727.87 269.78 C 724.71 269.29 722.72 265.98 722.79 262.96 C 722.70 257.00 722.65 251.04 722.92 245.09 Z" />
<path fill="#005b9f" opacity="1.00" d=" M 747.80 244.95 C 748.39 244.99 749.58 245.05 750.17 245.09 C 751.15 251.30 749.87 257.67 750.80 263.88 C 752.07 267.48 756.66 265.50 759.50 266.02 C 759.77 259.05 758.96 251.99 759.88 245.08 C 761.52 244.45 762.83 245.22 762.70 247.03 C 762.72 254.51 762.95 262.03 762.57 269.50 C 759.14 270.39 755.49 270.13 752.01 269.73 C 748.20 268.85 746.85 264.47 747.23 261.00 C 747.56 255.67 746.56 250.17 747.80 244.95 Z" />
<path fill="#005b9f" opacity="1.00" d=" M 768.91 244.69 C 769.96 245.19 772.38 244.96 771.97 246.87 C 772.19 252.25 771.75 257.65 772.11 263.03 C 772.19 264.22 773.12 265.08 773.70 266.07 C 776.04 266.01 778.40 265.99 780.76 265.98 C 780.82 259.02 780.57 252.05 780.92 245.09 C 781.71 245.10 783.29 245.13 784.08 245.14 C 784.05 253.42 785.00 261.87 783.54 270.05 C 780.35 269.96 777.15 270.17 773.98 269.82 C 770.81 269.40 768.58 266.20 768.77 263.10 C 768.73 256.96 768.65 250.82 768.91 244.69 Z" />
</g>
<g id="#fefefeff">
</g>
</svg>
